<svg width="248" height="43" xmlns="http://www.w3.org/2000/svg"><path d="M38.613 38.331c.157 0 .392-.031.705-.094 1.535-.345 2.695-1.261 3.478-2.75.783-1.488 1.175-3.219 1.175-5.193 0-1.441-.204-2.836-.611-4.183-.407-1.347-.971-2.444-1.692-3.29-.47-.564-1.543-.987-3.22-1.269-1.676-.282-3.564-.423-5.663-.423-1.66 0-3.212.086-4.653.258-1.441.173-2.46.4-3.055.682-.188.094-.47.227-.846.4-.376.172-.69.43-.94.775-.25.345-.454 1.034-.611 2.068.094-1.473.141-2.914.141-4.324l-.047-2.303c.439.25 1.386.51 2.843.776s2.672.399 3.643.399c4.324 0 7.52-.392 9.588-1.175 2.068-.783 3.102-2.178 3.102-4.183 0-1.943-.791-3.392-2.373-4.348-1.583-.955-4.238-1.417-7.967-1.386.501-.595.752-1.269.752-2.021 0-.345-.031-.611-.094-.799a2.879 2.879 0 0 0-1.034-1.669 2.866 2.866 0 0 0-1.833-.634c-.157 0-.392.031-.705.094a2.428 2.428 0 0 0-1.575 1.01 3.116 3.116 0 0 0-.587 1.857c0 .157.031.423.094.799.125.595.423 1.097.893 1.504-3.165.22-5.468.791-6.909 1.715-1.441.925-2.193 2.155-2.256 3.69 0 .094-.149 1.966-.447 5.616-.297 3.65-1.198 7.654-2.702 12.009-.188.564-.282 1.065-.282 1.504 0 .877.29 1.582.87 2.115.58.533 1.276.799 2.091.799.627 0 1.23-.164 1.81-.493.58-.33 1.057-.823 1.433-1.481.564-1.065 1.003-2.898 1.316-5.499-.063.94-.094 2.679-.094 5.217 0 1.16.227 1.998.681 2.514.455.517 1.011.776 1.669.776.501 0 .956-.25 1.363-.752.407-.501.642-1.379.705-2.632.031-.313.047-.72.047-1.222 0-.501-.016-.862-.047-1.081l1.128-.047c0 1.285-.078 2.397-.235 3.337-.063.376.094.728.47 1.057.376.33.799.494 1.269.494.439 0 .823-.172 1.151-.517.33-.345.541-.877.635-1.598.063-.533.125-1.488.188-2.867l1.363-.047c0 1.441-.094 2.632-.282 3.572-.094.439.016.815.329 1.128.313.313.705.47 1.175.47.439 0 .846-.18 1.222-.54.376-.36.611-.917.705-1.669.094-.815.141-1.817.141-3.008l2.773-.094c.25 0 .423-.016.517-.047 0 1.034-.125 1.739-.376 2.115a1.44 1.44 0 0 0-.987-.376c-.501 0-.924.227-1.269.681-.345.455-.517 1.042-.517 1.763 0 .376.047.752.141 1.128.157.47.43.87.822 1.198.392.33.886.494 1.481.494zM28.132 5.807c-.094 0-.188-.047-.282-.141a.447.447 0 0 1-.188-.376c0-.25.094-.439.282-.564a.712.712 0 0 1 .564-.282c.157 0 .282.047.376.141.125.125.188.25.188.376 0 .188-.11.36-.329.517-.22.22-.423.329-.611.329zM6.653 29.025c1.19 0 2.444-.211 3.76-.634a12.046 12.046 0 0 0 3.525-1.786c1.034-.768 1.708-1.622 2.021-2.562.063-.125.094-.345.094-.658 0-.564-.227-1.089-.682-1.575-.454-.485-.947-.728-1.48-.728-.439 0-.799.172-1.081.517-.345.439-.932.877-1.763 1.316-.83.439-1.48.658-1.95.658-.22 0-.376-.047-.47-.141-.094-.094-.141-.235-.141-.423 0-.282.125-.705.376-1.269l.564-1.269c1.128-.125 2.17-.29 3.126-.494.955-.203 1.574-.399 1.856-.587.971-.564 1.457-1.363 1.457-2.397 0-.407-.063-.752-.188-1.034a1.587 1.587 0 0 0-.681-.822 1.974 1.974 0 0 0-1.058-.306c-.407 0-.768.125-1.081.376-.501.439-1.198.87-2.091 1.293-.893.422-1.622.634-2.186.634-.407 0-.674-.11-.799-.329-.282-.439.29-1.073 1.715-1.903 1.426-.83 2.781-1.45 4.066-1.857.595-.188.893-.611.893-1.269 0-.47-.157-.971-.47-1.504a3.978 3.978 0 0 0-1.316-1.34 3.42 3.42 0 0 0-1.88-.54c-1.003 0-1.974.36-2.914 1.081-1.598 1.19-2.953 2.507-4.066 3.948-1.112 1.441-1.668 2.82-1.668 4.136 0 .533.094 1.034.282 1.504.25.69 1.018 1.144 2.303 1.363-.815.627-1.473 1.332-1.974 2.115-.501.783-.752 1.582-.752 2.397 0 1.097.486 2.13 1.457 3.102.658.658 1.723.987 3.196.987zm5.781-18.988c-.094.063-.298-.04-.611-.306s-.611-.399-.893-.399c-.313 0-.674.157-1.081.47-.094.094-.204.11-.329.047-.125-.063-.188-.157-.188-.282 0-.094.047-.157.141-.188.345-.345.862-.517 1.551-.517.22 0 .376.016.47.047.282.063.525.188.729.376.203.188.305.376.305.564l-.094.188zm7.755 3.29c-.125 0-.188-.094-.188-.282v-.047c.031-.345.196-.69.493-1.034.298-.345.588-.58.87-.705.533-.282 1.003-.423 1.41-.423.282 0 .392.078.329.235-.031.125-.266.25-.705.376-.439.125-.815.29-1.128.494-.313.203-.564.587-.752 1.151-.063.157-.172.235-.329.235zm10.528 2.679c-2.381 0-4.105-.102-5.17-.306-1.065-.203-1.598-.665-1.598-1.386 0-.47.446-.916 1.34-1.34.892-.422 2.389-.65 4.488-.681 2.381 0 4.214.157 5.499.47 1.285.313 1.99.83 2.115 1.551.094.564-.462.987-1.669 1.269-1.206.282-2.874.423-5.005.423zm-15.698.282c-.094.094-.204.055-.329-.117a1.466 1.466 0 0 0-.329-.353 1.273 1.273 0 0 0-.353-.211c-.172-.079-.258-.165-.258-.259l.047-.094c.188-.157.486-.125.893.094.282.22.423.439.423.658a.721.721 0 0 1-.094.282zm-.188 6.016c-.031.125-.133.141-.306.047a2.711 2.711 0 0 0-.399-.188 2.23 2.23 0 0 0-.517-.047c-.22 0-.313-.063-.282-.188.063-.25.266-.376.611-.376l.282.047c.407.125.611.329.611.611v.094zm21.056 5.264-.141-2.068c1.567-.063 2.413.016 2.538.235.188.345.36.877.517 1.598h-.141l-2.773.235zm-4.653.329c-.063-1.003-.125-1.723-.188-2.162l1.363-.094.188 2.162-1.363.094zm-4.7.376-.094-2.021 1.269-.188c.063.877.094 1.582.094 2.115l-1.269.094zm-19.928 0c-.752.063-1.379-.016-1.88-.235-.501-.157-.924-.47-1.269-.94-.063-.063-.063-.125 0-.188s.141-.078.235-.047a3.49 3.49 0 0 0 1.41.87 4.896 4.896 0 0 0 1.504.258c.125.031.188.086.188.165 0 .078-.063.117-.188.117zm-1.221 6.69.14-.016 8.131-1.034c.376-.063.681-.258.916-.587a1.93 1.93 0 0 0 .353-1.152c0-.22-.016-.376-.047-.47l-.376-1.974a1.817 1.817 0 0 0-.564-.94c-.282-.25-.58-.376-.893-.376-.094 0-.235.031-.423.094l-7.708 2.867a1.723 1.723 0 0 0-.87.799 2.29 2.29 0 0 0-.258 1.269c.094.47.313.854.658 1.151.345.298.705.416 1.081.353l-.14.015zm-.706-1.896c-.125-.094-.188-.204-.188-.329a.59.59 0 0 1 .282-.517c.157-.25.376-.376.658-.376.125 0 .22.016.282.047.094.125.055.243-.117.353-.173.11-.29.195-.353.258-.094.125-.18.258-.259.4-.078.14-.148.211-.211.211l-.094-.047zm32.806 1.786c-.031 0-.078-.031-.141-.094-.125-.125-.157-.258-.094-.4.063-.14.094-.227.094-.258a.349.349 0 0 1 .235-.164.384.384 0 0 1 .282.07c.094.157.078.345-.047.564-.125.188-.235.282-.329.282zm40.92-17.997.487-.004c3.666 0 6.376-.51 8.131-1.527 1.755-1.019 2.632-2.75 2.632-5.194 0-2.57-.924-4.567-2.773-5.993C85.033 2.713 82.402 2 78.986 2c-2.287 0-4.254.4-5.898 1.199-1.645.799-2.891 1.887-3.737 3.266-.846 1.379-1.269 2.93-1.269 4.653 0 1.66.4 2.906 1.199 3.736.798.83 1.942 1.38 3.43 1.646 1.489.266 3.549.383 6.181.352l-.487.004zM59.81 38.096c.909 0 1.762-.47 2.561-1.41.8-.94 1.387-2.428 1.763-4.465.25-1.285.454-2.867.611-4.747.376.47.815.705 1.316.705.188 0 .439-.063.752-.188l1.786-.987c.627-.345.94-.909.94-1.692 0-.627-.25-1.144-.752-1.551l-3.196-3.149h.235c1.097 0 1.911-.29 2.444-.87.533-.58.783-1.386.752-2.42 0-.783-.274-1.527-.823-2.232-.548-.706-1.402-1.042-2.561-1.011l-1.081.094c0-.188-.11-1.144-.329-2.867h1.034c.877.031 1.535-.243 1.974-.822.439-.58.658-1.403.658-2.468 0-.752-.22-1.488-.658-2.209-.439-.72-1.112-1.081-2.021-1.081L55.016 5.76c-.877.031-1.45.313-1.715.846-.267.533-.384 1.206-.353 2.021-.031.627.204 1.19.705 1.692.501.501 1.253.768 2.256.799l2.632.047v3.619l-5.499.517c-1.034.063-1.708.36-2.021.893-.313.533-.47 1.222-.47 2.068 0 .627.313 1.167.94 1.622.627.454 1.551.697 2.773.728h.94a38.857 38.857 0 0 0-3.478 3.901c-1.128 1.441-1.88 2.867-2.256 4.277-.031.094-.047.25-.047.47 0 .595.25 1.12.752 1.574.501.455 1.112.682 1.833.682.971 0 1.864-.454 2.679-1.363 1.316-1.473 2.507-3.619 3.572-6.439-.22 4.512-.627 8.256-1.222 11.233-.031.094-.047.25-.047.47 0 .72.282 1.347.846 1.88.564.533 1.222.799 1.974.799zM54.029 7.452c-.094-.063-.133-.165-.118-.306a.572.572 0 0 1 .165-.352c.25-.345.517-.517.799-.517.063 0 .125.031.188.094.031.094-.031.188-.188.282a1.293 1.293 0 0 0-.376.329c-.063.094-.133.204-.212.329-.078.125-.133.188-.164.188l-.094-.047zm24.346 3.243c-1.285 0-2.162-.141-2.632-.423-.47-.282-.705-.72-.705-1.316 0-.783.165-1.394.493-1.833.33-.439 1.058-.658 2.186-.658.564 0 1.034.031 1.41.094 2.068.282 3.47.642 4.207 1.081.736.439 1.104.877 1.104 1.316 0 .439-.439.838-1.316 1.199-.877.36-2.46.54-4.747.54zm-7.567 1.927c-.157.157-.329-.008-.517-.493-.188-.486-.282-1.074-.282-1.763 0-.72.141-1.347.423-1.88.282-.533.517-.893.705-1.081.094-.094.188-.133.282-.118.094.016.141.071.141.165 0 .094-.016.157-.047.188-.69.846-1.034 1.786-1.034 2.82 0 .439.063.9.188 1.386.125.486.172.745.141.776zm-19.223 4.559c-.063 0-.11-.016-.141-.047-.188-.188-.157-.423.094-.705a1.08 1.08 0 0 1 .376-.376c.157-.094.282-.141.376-.141.063 0 .125.031.188.094.031.125-.023.235-.165.329a2.62 2.62 0 0 0-.399.329 8.319 8.319 0 0 0-.141.305c-.063.141-.125.212-.188.212zm34.216 22.748c1.19 0 2.28-.36 3.266-1.081.988-.72 1.481-1.66 1.481-2.82 0-.846-.36-1.559-1.081-2.139-.72-.58-1.692-.869-2.914-.869l-5.358.188c.125-.658.204-1.112.235-1.363l2.35.047c.846 0 1.637-.313 2.373-.94.737-.627 1.168-1.473 1.293-2.538.063-.94-.18-1.739-.728-2.397-.549-.658-1.34-.987-2.374-.987l-2.82.141c0-.22-.031-.486-.094-.799l3.196.047c.94 0 1.794-.321 2.561-.963.768-.643 1.23-1.481 1.387-2.515.063-.971-.196-1.794-.775-2.467-.58-.674-1.403-1.011-2.468-1.011l-14.147.564c-.877 0-1.441.305-1.692.916-.25.611-.376 1.465-.376 2.562 0 1.598.69 2.475 2.068 2.632l4.136.094v1.175l-4.277.188c-.783-.031-1.3.274-1.551.916-.25.643-.376 1.465-.376 2.468 0 1.63.658 2.522 1.974 2.679l3.713.047-.282 1.692-5.17.188c-.94 0-1.575.25-1.903.752-.33.501-.541 1.206-.635 2.115-.031.909.11 1.653.423 2.233.313.58 1.018.916 2.115 1.01l16.45.235zM70.056 19.578l-.047-.023c-.031-.016-.047-.04-.047-.071-.094-.188-.016-.407.235-.658.25-.157.486-.235.705-.235.22 0 .329.063.329.188.031.094-.047.165-.235.212a.988.988 0 0 0-.47.258 1.69 1.69 0 0 0-.258.212c-.079.078-.15.117-.212.117zm.235 7.52c-.063 0-.11-.016-.141-.047-.125-.22-.016-.47.329-.752.22-.125.454-.188.705-.188.22 0 .329.047.329.141 0 .094-.102.172-.306.235a1.609 1.609 0 0 0-.493.235 3.555 3.555 0 0 0-.212.235c-.078.094-.148.141-.211.141zm-2.068 8.084c-.031 0-.078-.031-.141-.094-.063-.063-.063-.165 0-.306a.6.6 0 0 1 .282-.305c.25-.157.486-.235.705-.235.22 0 .329.063.329.188.031.063-.055.117-.258.164a1.304 1.304 0 0 0-.494.212c-.25.25-.392.376-.423.376zm44.893-26.743c.846 0 1.606-.329 2.28-.987.673-.658 1.01-1.426 1.01-2.303 0-.846-.329-1.582-.987-2.209-.658-.627-1.426-.94-2.303-.94-.846 0-1.582.313-2.209.94s-.94 1.363-.94 2.209c0 .877.313 1.645.94 2.303.627.658 1.363.987 2.209.987zm7.943 0c.877 0 1.63-.321 2.256-.963.627-.643.94-1.418.94-2.327 0-.846-.313-1.582-.94-2.209a3.077 3.077 0 0 0-2.256-.94c-.877 0-1.637.313-2.28.94-.642.627-.963 1.363-.963 2.209 0 .909.321 1.684.963 2.327.643.642 1.403.963 2.28.963zm-15.604.705c.909 0 1.676-.313 2.303-.94s.94-1.379.94-2.256c0-.846-.321-1.582-.963-2.209-.643-.627-1.403-.94-2.28-.94-.877 0-1.63.313-2.256.94-.627.627-.94 1.363-.94 2.209 0 .877.313 1.63.94 2.256.627.627 1.379.94 2.256.94zm6.157-4.982c-.157-.25-.141-.486.047-.705.22-.157.392-.235.517-.235s.204.047.235.141c.188.157.157.36-.094.611-.125.188-.282.282-.47.282l-.235-.094zm7.943 0c-.125-.094-.188-.204-.188-.329 0-.157.078-.282.235-.376.157-.157.298-.235.423-.235s.204.047.235.141c.157.094.18.212.07.353-.11.14-.164.227-.164.258-.125.188-.266.282-.423.282l-.188-.094zm-15.369.846a.721.721 0 0 1-.282-.094c-.094-.125-.125-.25-.094-.376a.42.42 0 0 1 .235-.282c.157-.157.298-.235.423-.235s.204.047.235.141c.188.157.157.36-.094.611a.493.493 0 0 1-.423.235zm-8.484 16.098c.706 1.268 1.638 1.825 2.797 1.668 3.04-.47 4.559-1.551 4.559-3.243 0-.533-.125-1.144-.376-1.833 0-.063-.047-.235-.141-.517-.094-.282-.094-.486 0-.611.376-.439 2.201-.807 5.475-1.104 3.275-.298 6.62-.447 10.035-.447 2.256 0 4.058.07 5.405.211 1.347.141 1.927.353 1.739.635-.627.971-.94 1.864-.94 2.679 0 .846.337 1.52 1.01 2.021.674.501 1.481.752 2.421.752.752 0 1.473-.157 2.162-.47a4.622 4.622 0 0 0 1.739-1.363c1.222-1.63 1.833-3.227 1.833-4.794 0-1.63-.69-2.969-2.068-4.018-1.379-1.05-3.227-1.59-5.546-1.622-1.692-.031-4.669.008-8.93.117-4.261.11-8.46.377-12.596.8-4.136.422-6.768 1.041-7.896 1.856-.564.407-.995 1.042-1.293 1.903-.297.862-.446 1.826-.446 2.891 0 1.723.353 3.22 1.058 4.488zm1.058-7.074c-.063 0-.11-.016-.141-.047a.508.508 0 0 1-.141-.376c0-.282.11-.533.329-.752.22-.282.47-.423.752-.423a.45.45 0 0 1 .329.141c.125.125.086.259-.118.4a3.4 3.4 0 0 0-.399.305 2.528 2.528 0 0 0-.329.447c-.125.203-.22.305-.282.305zm14.006 25.944c.407 0 .705-.016.893-.047 3.353-.407 5.029-2.428 5.029-6.063 0-.69-.047-1.363-.141-2.021l8.93.047c1.66 0 2.663-1.065 3.008-3.196.063-.909-.086-1.669-.447-2.28-.36-.61-.885-.9-1.574-.869l-10.763.188c1.817-1.034 3.314-2.037 4.489-3.008 1.175-.971 1.762-2.037 1.762-3.196 0-.188-.031-.439-.094-.752-.564-2.037-2.726-3.055-6.486-3.055-2.413 0-5.029.36-7.849 1.081-.658.188-1.136.47-1.433.846a1.992 1.992 0 0 0-.447 1.269c0 .595.196 1.167.588 1.715.391.549.79.839 1.198.87.564 0 1.332-.047 2.303-.141 1.723-.157 2.804-.235 3.243-.235 1.285 0 1.99.188 2.115.564.188.627-.454 1.394-1.927 2.303a3.125 3.125 0 0 0-1.551-.423c-.658 0-1.23.18-1.715.54-.486.36-.729.776-.729 1.246 0 .157.016.282.047.376l.047.141-9.259.188c-.846 0-1.402.274-1.668.823-.267.548-.4 1.276-.4 2.185 0 .69.141 1.269.423 1.739.282.47.83.768 1.645.893l10.763.094c.031.22.047.533.047.94 0 1.222-.376 1.833-1.128 1.833-.313 0-.611-.063-.893-.188-.47-.188-.932-.04-1.386.447-.455.485-.682 1.088-.682 1.809 0 .909.392 1.708 1.175 2.397.627.627 1.582.94 2.867.94zm-4.277-21.432a.558.558 0 0 1-.023-.423 1 1 0 0 1 .258-.423.758.758 0 0 1 .611-.282c.125 0 .22.016.282.047.063.125.008.235-.165.329-.172.094-.29.157-.352.188a9.73 9.73 0 0 0-.235.376c-.094.157-.188.235-.282.235l-.094-.047zm-7.428 10.16-.069-.008c-.172-.031-.274-.141-.305-.329 0-.282.102-.58.306-.893.203-.313.43-.533.681-.658.25-.094.47-.141.658-.141.188 0 .353.031.494.094.14.063.211.141.211.235 0 .031-.149.055-.447.07-.297.016-.587.11-.869.282-.282.173-.439.572-.47 1.199 0 .125-.086.172-.258.141l.068.009zm8.885 7.042c-.063 0-.125-.031-.188-.094-.125-.125-.094-.298.094-.517.031-.094.102-.141.212-.141a.35.35 0 0 1 .258.094c.125.094.172.18.141.258a.285.285 0 0 1-.188.165c-.063.157-.172.235-.329.235zm47.4 2.303c.407 0 .815-.047 1.222-.141 2.507-.533 4.59-1.763 6.251-3.69 1.66-1.927 2.883-4.23 3.666-6.909a29.573 29.573 0 0 0 1.175-8.342c0-2.82-.36-5.39-1.081-7.708-.72-2.319-1.708-3.932-2.961-4.841-1.316-.94-3.51-1.41-6.58-1.41-2.507 0-5.217.266-8.131.799-2.914.533-4.982 1.034-6.204 1.504-.783.313-1.488.854-2.115 1.621-.627.768-.94 1.7-.94 2.797 0 .345.047.736.141 1.175.188.877.65 1.512 1.387 1.903.736.392 1.637.588 2.702.588.94 0 1.896-.141 2.867-.423.971-.313 2.397-.611 4.277-.893 1.88-.282 3.51-.423 4.888-.423 1.41 0 2.24.172 2.491.517.564.815.846 2.021.846 3.619 0 1.379-.196 2.867-.588 4.465-.391 1.598-.877 3.016-1.457 4.253-.58 1.238-1.12 2.03-1.621 2.374-.345-.345-.799-.517-1.363-.517-.627 0-1.277.211-1.95.634a5.45 5.45 0 0 0-1.692 1.692 4.13 4.13 0 0 0-.682 2.28c0 .564.11 1.081.329 1.551a6.937 6.937 0 0 0 2.044 2.491c.894.69 1.92 1.034 3.079 1.034zm-13.348-27.918c-.063 0-.11-.016-.141-.047-.25-.345-.11-.736.423-1.175.345-.22.658-.329.94-.329.157 0 .282.047.376.141.094.063.086.141-.024.235-.11.094-.242.172-.399.235a2.086 2.086 0 0 0-.376.188 4.88 4.88 0 0 0-.376.447c-.157.203-.298.305-.423.305zm1.081 12.361c2.005 0 4.136-.517 6.392-1.551.439-.22.775-.501 1.01-.846a1.89 1.89 0 0 0 .353-1.081c0-.501-.157-.916-.47-1.245-.313-.33-.736-.494-1.269-.494-.188 0-.345.016-.47.047-.47.063-1.081.094-1.833.094-1.943 0-4.01-.25-6.204-.752a2.23 2.23 0 0 0-.517-.047c-.595 0-1.073.258-1.434.775-.36.518-.54 1.12-.54 1.81 0 .501.11.98.329 1.433.22.455.548.792.987 1.011 1.097.564 2.319.846 3.666.846zm-3.76-4.089c-.063 0-.11-.016-.141-.047-.125-.125-.149-.266-.07-.423.078-.157.242-.313.493-.47.22-.125.486-.188.799-.188.22 0 .36.031.423.094.094.094.102.172.023.235-.078.063-.211.11-.399.141a1.562 1.562 0 0 0-.376.094l-.305.306c-.173.172-.322.258-.447.258zm1.175 15.275c2.005 0 3.854-.627 5.546-1.88 1.692-1.253 3.055-2.554 4.089-3.901.439-.533.658-1.112.658-1.739s-.212-1.16-.635-1.598a2.046 2.046 0 0 0-1.527-.658 2.38 2.38 0 0 0-1.41.47c-.94.595-2.201 1.19-3.784 1.786-1.582.595-3.376 1.065-5.381 1.41-.564.125-.987.376-1.269.752-.282.376-.423.83-.423 1.363 0 .909.329 1.77.987 2.585.658.815 1.473 1.269 2.444 1.363l.705.047zm-3.196-4.324c-.063 0-.11-.016-.141-.047-.25-.25-.125-.548.376-.893.25-.157.533-.235.846-.235.22 0 .36.031.423.094.094.094.102.172.024.235a1.378 1.378 0 0 1-.376.188c-.173.063-.306.11-.4.141-.094.063-.22.165-.376.305-.157.142-.282.212-.376.212zm15.416 1.222c-.094 0-.157-.016-.188-.047-.125-.157-.125-.36 0-.611.094-.125.204-.188.329-.188.094 0 .172.031.235.094.125.063.157.149.094.258a.579.579 0 0 0-.094.259.413.413 0 0 1-.165.165.421.421 0 0 1-.211.07zm35.945 10.058c.94 0 1.794-.329 2.561-.987.768-.658 1.34-1.708 1.716-3.149.439-1.598.705-3.901.799-6.909l14.241-.094c.72-.063 1.324-.439 1.81-1.128.485-.69.697-1.551.634-2.585-.031-.94-.298-1.739-.799-2.397-.501-.658-1.112-.987-1.833-.987l-14.194.141a92.295 92.295 0 0 0-.446-5.781c-.204-1.849-.431-3.337-.682-4.465l8.131-.141c.69-.031 1.269-.345 1.739-.94.47-.595.705-1.379.705-2.35 0-1.034-.25-1.904-.752-2.609-.501-.705-1.128-1.057-1.88-1.057l-19.787.282a2.44 2.44 0 0 0-1.058.259c-.36.172-.603.399-.728.681a4.36 4.36 0 0 0-.494 1.081 4.14 4.14 0 0 0-.211 1.269c0 .22.016.376.047.47.188 1.19.556 2.045 1.105 2.562.548.516 1.308.76 2.279.728l5.217-.094c.22 3.133.313 6.533.282 10.199l-12.079.141c-.407 0-.775.07-1.105.211-.329.142-.556.353-.681.635a5.294 5.294 0 0 0-.494 1.151c-.14.455-.211.87-.211 1.246 0 .22.016.376.047.47.188 1.19.548 2.029 1.081 2.515.533.485 1.3.728 2.303.728l10.904-.094c-.25 3.321-.658 6.188-1.222 8.601-.157.595.094 1.144.752 1.645.658.501 1.426.752 2.303.752zm-9.071-33.041c-.063 0-.094-.016-.094-.047-.125-.094-.141-.235-.047-.423.094-.188.25-.376.47-.564.313-.25.548-.376.705-.376.094 0 .188.047.282.141.094.094.016.212-.235.353-.25.14-.407.227-.47.258a2.713 2.713 0 0 1-.282.376c-.157.188-.266.282-.329.282zm2.397 13.16c.94 0 1.723-.337 2.35-1.01.627-.674.94-1.465.94-2.374 0-.376-.031-.658-.094-.846-.22-.815-.635-1.465-1.246-1.95a3.205 3.205 0 0 0-2.044-.729c-.94 0-1.723.337-2.35 1.01-.627.674-.94 1.481-.94 2.421 0 .971.345 1.794 1.034 2.468.69.673 1.473 1.01 2.35 1.01zm16.262 0c.94 0 1.723-.345 2.35-1.034.627-.69.94-1.488.94-2.397a5.64 5.64 0 0 0-.094-.799c-.157-.815-.548-1.465-1.175-1.95a3.365 3.365 0 0 0-2.115-.729c-.94 0-1.723.329-2.35.987a3.29 3.29 0 0 0-.94 2.35c0 1.003.345 1.849 1.034 2.538.69.69 1.473 1.034 2.35 1.034zm-17.813-4.418a.45.45 0 0 1-.329-.141.579.579 0 0 1-.235-.47c0-.125.094-.345.282-.658.282-.22.517-.329.705-.329.157 0 .313.078.47.235.157.157.204.306.141.447a3.317 3.317 0 0 1-.329.54c-.25.25-.486.376-.705.376zm16.262 0c-.094 0-.188-.047-.282-.141-.188-.157-.282-.329-.282-.517s.11-.392.329-.611a.762.762 0 0 1 .658-.329c.188 0 .36.078.517.235.157.157.196.321.118.494a1.425 1.425 0 0 1-.4.493c-.25.25-.47.376-.658.376zm-22.889 8.46c-.157-.25 0-.548.47-.893.25-.313.517-.47.799-.47.031 0 .11.031.235.094.063.157-.031.29-.282.4-.25.11-.407.18-.47.211-.313.47-.533.705-.658.705l-.094-.047zm62.085-2.444c.658 0 1.316-.196 1.974-.587.658-.392 1.198-.956 1.621-1.692.424-.737.635-1.575.635-2.515 0-.877-.204-1.817-.611-2.82-.94-2.162-2.068-3.729-3.384-4.7-1.316-.971-2.585-1.457-3.807-1.457-.658 0-1.206.133-1.645.4-.439.266-.658.587-.658.963 0 .282.141.564.423.846.595.533 1.144 1.269 1.645 2.209l-.094.094c-.501.439-1.308.807-2.42 1.104a12.948 12.948 0 0 1-3.361.447c-.877 0-1.66-.102-2.35-.306-.69-.203-1.175-.509-1.457-.916-.125-.25-.188-.454-.188-.611 0-1.034 1.426-2.679 4.277-4.935 1.065-.877 1.598-1.786 1.598-2.726 0-.752-.352-1.386-1.058-1.904-.705-.517-1.558-.775-2.561-.775-1.379 0-2.57.454-3.572 1.363-1.034.909-2.1 2.146-3.196 3.713a27.623 27.623 0 0 0-2.75 4.911c-.736 1.708-1.104 3.22-1.104 4.536 0 1.222.345 2.193 1.034 2.914 1.19 1.222 3.259 1.833 6.204 1.833 2.037 0 4.19-.235 6.463-.705 2.271-.47 4.284-.971 6.039-1.504v.094c-.031.909.172 1.59.611 2.044.439.455 1.003.682 1.692.682zM222.685 4.632c-.125 0-.204-.063-.235-.188a.729.729 0 0 1 .165-.681c.172-.204.43-.353.775-.447.25-.094.47-.141.658-.141.22 0 .4.04.54.118.142.078.243.18.306.305.063.157.04.266-.07.329-.11.063-.282.094-.518.094-.235 0-.415.016-.54.047a5.575 5.575 0 0 0-.54.329c-.236.157-.416.235-.541.235zm-5.123 15.369c-.125 0-.415-.133-.87-.4-.454-.266-.877-.681-1.269-1.245-.391-.564-.587-1.285-.587-2.162 0-.47.07-.846.212-1.128.14-.282.305-.423.493-.423.125 0 .188.125.188.376l-.047.94c0 1.598.72 2.742 2.162 3.431.125.063.172.188.141.376s-.125.282-.282.282l-.141-.047zm10.481 19.552c3.51 0 6.259-.752 8.249-2.256 1.99-1.504 2.984-3.54 2.984-6.11 0-1.723-.47-3.274-1.41-4.653-.94-1.379-2.272-2.467-3.995-3.267-1.723-.799-3.744-1.198-6.063-1.198-2.256 0-4.23.47-5.922 1.41-1.692.94-2.992 2.178-3.901 3.713a9.61 9.61 0 0 0-1.363 4.982c0 2.475.995 4.324 2.984 5.546 1.99 1.222 4.802 1.833 8.437 1.833zm-9.165-6.627c-.22 0-.376-.188-.47-.564a5.03 5.03 0 0 1-.141-1.222c0-.658.086-1.308.258-1.95.173-.643.384-1.152.635-1.528.564-.846 1.128-1.48 1.692-1.903.564-.424.924-.463 1.081-.118a.56.56 0 0 1-.023.564c-.11.188-.322.439-.635.752a9.18 9.18 0 0 0-1.434 1.81c-.36.61-.54 1.402-.54 2.373 0 .22.031.58.094 1.081a.607.607 0 0 1-.118.494.491.491 0 0 1-.399.211zm6.956.141c-.877 0-1.473-.141-1.786-.423-.313-.282-.47-.736-.47-1.363 0-1.034.196-1.88.588-2.538.391-.658 1.151-.987 2.279-.987.407 0 .862.047 1.363.141 3.008.627 4.512 1.441 4.512 2.444 0 .094-.031.235-.094.423-.063.407-.407.807-1.034 1.198-.627.392-1.676.698-3.149.917-.783.125-1.52.188-2.209.188z" fill="#FFF" fill-rule="nonzero"/></svg>